<?xml version="1.0" encoding="UTF-8" standalone="no"?>
<svg
   viewBox="0 0 30 30"
   version="1"
   id="svg1398"
   width="4096"
   height="4096"
   xmlns="http://www.w3.org/2000/svg"
   xmlns:svg="http://www.w3.org/2000/svg">
  <defs
     id="defs1357" />
  <g
     id="g1396">
    <rect
       style="fill:#286d2b;fill-opacity:1;stroke:none;stroke-width:1.66667;stroke-linejoin:round;stroke-dasharray:none;stroke-opacity:1"
       id="rect3040"
       width="30"
       height="30"
       x="0"
       y="0"
       rx="0" />
    <path
       style="fill:none;fill-opacity:1;stroke:#973535;stroke-width:2;stroke-linejoin:round;stroke-dasharray:none;stroke-opacity:1"
       d="m 2.5003769,4.5000003 c 4.975e-4,4.7780028 4.975e-4,16.2223597 0,21.0000357 -1.15e-4,1.104549 0.8950805,2.000627 1.9996834,2.000698 0.3294338,2.1e-5 0.6706366,2.1e-5 1.0000585,0 1.104504,-7.1e-5 2.0003366,-0.896168 2.0004712,-2.000741 2.134e-4,-1.750293 2.133e-4,-4.249719 -1e-7,-6.000076 -1.347e-4,-1.104523 0.8948675,-1.999254 1.9994704,-1.999183 0.3294338,2.1e-5 0.6706367,2.1e-5 1.0000587,0 1.104504,-7.1e-5 2.000336,0.8947 2.000471,1.999273 2.13e-4,1.750383 2.13e-4,4.249809 0,6.000075 -1.35e-4,1.104524 0.894867,2.000581 1.99947,2.000652 0.329434,2.1e-5 0.670637,2.1e-5 1.000059,0 1.104504,-7.1e-5 2.000336,-0.896168 2.000471,-2.000741 2.13e-4,-1.750293 2.13e-4,-4.249719 0,-6.000076 -1.35e-4,-1.104523 0.894867,-1.999254 1.99947,-1.999183 0.329434,2.1e-5 0.670637,2.1e-5 1.000059,0 1.104504,-7.1e-5 2.000336,0.8947 2.000471,1.999273 2.13e-4,1.750383 2.13e-4,4.249809 0,6.000075 -1.35e-4,1.104524 0.894867,2.000581 1.99947,2.000652 0.329434,2.1e-5 0.670637,2.1e-5 1.000059,0 1.104504,-7.1e-5 2.000143,-0.896165 2.000258,-2.000734 4.97e-4,-4.777709 4.97e-4,-16.2220662 0,-21.0000356 -1.15e-4,-1.1045499 -0.895835,-1.9993014 -2.000438,-1.9992303 -0.329426,2.12e-5 -0.670629,2.12e-5 -1.000058,-10e-8 -1.104504,-7.14e-5 -1.999426,0.8946997 -1.999291,1.9992733 2.13e-4,1.7503826 2.13e-4,4.2498083 0,6.0000747 -1.35e-4,1.104524 -0.896048,2.000581 -2.000651,2.000652 -0.329426,2.1e-5 -0.670629,2.1e-5 -1.000058,0 -1.104504,-7.1e-5 -1.999426,-0.896168 -1.999291,-2.000741 2.13e-4,-1.7502928 2.13e-4,-4.2497186 0,-6.0000755 -1.35e-4,-1.104524 -0.896048,-1.9992545 -2.000651,-1.9991834 -0.329426,2.12e-5 -0.670629,2.12e-5 -1.000058,-10e-8 -1.104504,-7.14e-5 -1.999426,0.8946997 -1.999291,1.9992733 2.13e-4,1.7503826 2.13e-4,4.2498083 0,6.0000747 -1.35e-4,1.104524 -0.896048,2.000581 -2.000651,2.000652 -0.329426,2.1e-5 -0.6706289,2.1e-5 -1.0000584,0 C 8.395377,12.500663 7.5004554,11.604566 7.50059,10.499993 7.5008034,8.7497002 7.5008033,6.2502744 7.5005899,4.4999175 7.5004552,3.3953935 6.6045423,2.500663 5.4999392,2.5007341 5.1705129,2.5007553 4.8293101,2.5007553 4.4998806,2.500734 3.395377,2.5006626 2.5002619,3.3954306 2.5003769,4.5000003 Z"
       id="path1663" />
    <path
       style="fill:none;fill-opacity:1;stroke:#666666;stroke-width:1.8;stroke-linejoin:round;stroke-dasharray:none;stroke-opacity:1"
       d="m 2.5003769,4.5000003 c 4.975e-4,4.7780028 4.975e-4,16.2223597 0,21.0000357 -1.15e-4,1.104549 0.8950805,2.000627 1.9996834,2.000698 0.3294338,2.1e-5 0.6706366,2.1e-5 1.0000585,0 1.104504,-7.1e-5 2.0003366,-0.896168 2.0004712,-2.000741 2.134e-4,-1.750293 2.133e-4,-4.249719 -1e-7,-6.000076 -1.347e-4,-1.104523 0.8948675,-1.999254 1.9994704,-1.999183 0.3294338,2.1e-5 0.6706367,2.1e-5 1.0000587,0 1.104504,-7.1e-5 2.000336,0.8947 2.000471,1.999273 2.13e-4,1.750383 2.13e-4,4.249809 0,6.000075 -1.35e-4,1.104524 0.894867,2.000581 1.99947,2.000652 0.329434,2.1e-5 0.670637,2.1e-5 1.000059,0 1.104504,-7.1e-5 2.000336,-0.896168 2.000471,-2.000741 2.13e-4,-1.750293 2.13e-4,-4.249719 0,-6.000076 -1.35e-4,-1.104523 0.894867,-1.999254 1.99947,-1.999183 0.329434,2.1e-5 0.670637,2.1e-5 1.000059,0 1.104504,-7.1e-5 2.000336,0.8947 2.000471,1.999273 2.13e-4,1.750383 2.13e-4,4.249809 0,6.000075 -1.35e-4,1.104524 0.894867,2.000581 1.99947,2.000652 0.329434,2.1e-5 0.670637,2.1e-5 1.000059,0 1.104504,-7.1e-5 2.000143,-0.896165 2.000258,-2.000734 4.97e-4,-4.777709 4.97e-4,-16.2220662 0,-21.0000356 -1.15e-4,-1.1045499 -0.895835,-1.9993014 -2.000438,-1.9992303 -0.329426,2.12e-5 -0.670629,2.12e-5 -1.000058,-10e-8 -1.104504,-7.14e-5 -1.999426,0.8946997 -1.999291,1.9992733 2.13e-4,1.7503826 2.13e-4,4.2498083 0,6.0000747 -1.35e-4,1.104524 -0.896048,2.000581 -2.000651,2.000652 -0.329426,2.1e-5 -0.670629,2.1e-5 -1.000058,0 -1.104504,-7.1e-5 -1.999426,-0.896168 -1.999291,-2.000741 2.13e-4,-1.7502928 2.13e-4,-4.2497186 0,-6.0000755 -1.35e-4,-1.104524 -0.896048,-1.9992545 -2.000651,-1.9991834 -0.329426,2.12e-5 -0.670629,2.12e-5 -1.000058,-10e-8 -1.104504,-7.14e-5 -1.999426,0.8946997 -1.999291,1.9992733 2.13e-4,1.7503826 2.13e-4,4.2498083 0,6.0000747 -1.35e-4,1.104524 -0.896048,2.000581 -2.000651,2.000652 -0.329426,2.1e-5 -0.6706289,2.1e-5 -1.0000584,0 C 8.395377,12.500663 7.5004554,11.604566 7.50059,10.499993 7.5008034,8.7497002 7.5008033,6.2502744 7.5005899,4.4999175 7.5004552,3.3953935 6.6045423,2.500663 5.4999392,2.5007341 5.1705129,2.5007553 4.8293101,2.5007553 4.4998806,2.500734 3.395377,2.5006626 2.5002619,3.3954306 2.5003769,4.5000003 Z"
       id="path5305" />
    <path
       style="fill:none;fill-opacity:1;stroke:#bbbbbb;stroke-width:0.2;stroke-linejoin:round;stroke-dasharray:0.8, 0.4;stroke-dashoffset:0;stroke-opacity:1"
       d="m 2.5003769,4.5000003 c 4.975e-4,4.7780028 4.975e-4,16.2223597 0,21.0000357 -1.15e-4,1.104549 0.8950805,2.000627 1.9996834,2.000698 0.3294338,2.1e-5 0.6706366,2.1e-5 1.0000585,0 1.104504,-7.1e-5 2.0003366,-0.896168 2.0004712,-2.000741 2.134e-4,-1.750293 2.133e-4,-4.249719 -1e-7,-6.000076 -1.347e-4,-1.104523 0.8948675,-1.999254 1.9994704,-1.999183 0.3294338,2.1e-5 0.6706367,2.1e-5 1.0000587,0 1.104504,-7.1e-5 2.000336,0.8947 2.000471,1.999273 2.13e-4,1.750383 2.13e-4,4.249809 0,6.000075 -1.35e-4,1.104524 0.894867,2.000581 1.99947,2.000652 0.329434,2.1e-5 0.670637,2.1e-5 1.000059,0 1.104504,-7.1e-5 2.000336,-0.896168 2.000471,-2.000741 2.13e-4,-1.750293 2.13e-4,-4.249719 0,-6.000076 -1.35e-4,-1.104523 0.894867,-1.999254 1.99947,-1.999183 0.329434,2.1e-5 0.670637,2.1e-5 1.000059,0 1.104504,-7.1e-5 2.000336,0.8947 2.000471,1.999273 2.13e-4,1.750383 2.13e-4,4.249809 0,6.000075 -1.35e-4,1.104524 0.894867,2.000581 1.99947,2.000652 0.329434,2.1e-5 0.670637,2.1e-5 1.000059,0 1.104504,-7.1e-5 2.000143,-0.896165 2.000258,-2.000734 4.97e-4,-4.777709 4.97e-4,-16.2220662 0,-21.0000356 -1.15e-4,-1.1045499 -0.895835,-1.9993014 -2.000438,-1.9992303 -0.329426,2.12e-5 -0.670629,2.12e-5 -1.000058,-10e-8 -1.104504,-7.14e-5 -1.999426,0.8946997 -1.999291,1.9992733 2.13e-4,1.7503826 2.13e-4,4.2498083 0,6.0000747 -1.35e-4,1.104524 -0.896048,2.000581 -2.000651,2.000652 -0.329426,2.1e-5 -0.670629,2.1e-5 -1.000058,0 -1.104504,-7.1e-5 -1.999426,-0.896168 -1.999291,-2.000741 2.13e-4,-1.7502928 2.13e-4,-4.2497186 0,-6.0000755 -1.35e-4,-1.104524 -0.896048,-1.9992545 -2.000651,-1.9991834 -0.329426,2.12e-5 -0.670629,2.12e-5 -1.000058,-10e-8 -1.104504,-7.14e-5 -1.999426,0.8946997 -1.999291,1.9992733 2.13e-4,1.7503826 2.13e-4,4.2498083 0,6.0000747 -1.35e-4,1.104524 -0.896048,2.000581 -2.000651,2.000652 -0.329426,2.1e-5 -0.6706289,2.1e-5 -1.0000584,0 C 8.395377,12.500663 7.5004554,11.604566 7.50059,10.499993 7.5008034,8.7497002 7.5008033,6.2502744 7.5005899,4.4999175 7.5004552,3.3953935 6.6045423,2.500663 5.4999392,2.5007341 5.1705129,2.5007553 4.8293101,2.5007553 4.4998806,2.500734 3.395377,2.5006626 2.5002619,3.3954306 2.5003769,4.5000003 Z"
       id="path5519" />
  </g>
</svg>
