<svg
   viewBox="0 0 30 30"
   version="1"
   
   xmlns="http://www.w3.org/2000/svg"
   xmlns:svg="http://www.w3.org/2000/svg">
  <defs
      />
  <g
     >
    <path stroke="blue"
       d="M 0,0 H 30"
        />
    <path stroke="blue"
       d="M 0,0 V 30"
        />
    <path stroke="blue"
       d="M 30,0 V 30"
        />
    <path stroke="blue"
       d="M 0,30 H 30"
        />

    <path stroke="black"
       d="M 5,15 H 25"
        />

    <path stroke="black"
       d="M 5,5 V 25"
        />
    <path stroke="black"
       d="M 15,5 V 25"
        />
    <path stroke="black"
       d="M 25,5 V 25"
        />


    <path stroke="black"
       d="M 10,0 v 10"
        />
    <path stroke="black"
       d="M 20,0 v 10"
        />
    <path stroke="black"
       d="M 10,30 v -10"
        />
    <path stroke="black"
       d="M 20,30 v -10"
        />
   
   <ellipse cx="5" cy="2.5" rx=".5" ry="0.5" stroke-width="0.1" stroke="black" fill="yellow" />
   <ellipse cx="25" cy="2.5" rx=".5" ry="0.5" stroke-width="0.1" stroke="black" fill="yellow" />
   <ellipse cx="5" cy="27.5" rx=".5" ry="0.5" stroke-width="0.1" stroke="black" fill="yellow" />
   <ellipse cx="25" cy="27.5" rx=".5" ry="0.5" stroke-width="0.1" stroke="black" fill="yellow" />

   <ellipse cx="10" cy="12.5" rx=".5" ry="0.5" stroke-width="0.1" stroke="black" fill="yellow" />
   <ellipse cx="20" cy="12.5" rx=".5" ry="0.5" stroke-width="0.1" stroke="black" fill="yellow" />
   <ellipse cx="10" cy="17.5" rx=".5" ry="0.5" stroke-width="0.1" stroke="black" fill="yellow" />
   <ellipse cx="20" cy="17.5" rx=".5" ry="0.5" stroke-width="0.1" stroke="black" fill="yellow" />


   <ellipse cx="15" cy="2.5" rx=".5" ry="0.5" id="start" stroke-width="0.1" stroke="black" fill="blue" />

   <rect x="1.5" y="7.5" width="2" height="15" stroke="red" stroke-width="0.1" fill="yellow" />
   <rect x="26.5" y="7.5" width="2" height="15" stroke="red" stroke-width="0.1" fill="yellow" />

  </g>
</svg>
